<svg width="48" height="48" viewBox="0 0 48 48" fill="none" xmlns="http://www.w3.org/2000/svg">
<rect width="48" height="48" fill="#0D2880"/>
<path d="M19.68 6H7.44L6 7.44L9.6 11.04H18.24L21.12 7.44L19.68 6Z" fill="white"/>
<path d="M40.56 6H28.32L26.88 7.44L30.48 11.04H39.12L42 7.44L40.56 6Z" fill="white"/>
<path d="M28.32 42L40.56 42L42 40.56L38.4 36.96L29.76 36.96L26.88 40.56L28.32 42Z" fill="white"/>
<path d="M44.16 21.84L44.16 9.60003L42.72 8.16003L39.12 11.76L39.12 20.4L42.72 23.28L44.16 21.84Z" fill="white"/>
<path d="M24.72 26.16L24.72 38.4L26.16 39.84L29.76 36.24L29.76 27.6L26.16 24.72L24.72 26.16Z" fill="white"/>
<path d="M24.72 9.60003L24.72 21.84L26.16 23.28L29.76 19.68L29.76 11.04L26.16 8.16003L24.72 9.60003Z" fill="white"/>
<path d="M44.16 38.4L44.16 26.16L42.72 24.72L39.12 28.32L39.12 36.96L42.72 39.84L44.16 38.4Z" fill="white"/>
<path d="M7.44 25.4399L19.68 25.4399L21.12 23.9999L17.52 20.3999L8.88 20.3999L6 23.9999L7.44 25.4399Z" fill="white"/>
<path d="M7.44 42L19.68 42L21.12 40.56L17.52 36.96L8.88 36.96L6 40.56L7.44 42Z" fill="white"/>
<path d="M3.84 26.16L3.84 38.4L5.28 39.84L8.88 36.24L8.88 27.6L5.28 24.72L3.84 26.16Z" fill="white"/>
<path d="M23.28 21.84L23.28 9.60003L21.84 8.16003L18.24 11.76L18.24 20.4L21.84 23.28L23.28 21.84Z" fill="white"/>
</svg>
